<?xml version="1.0" encoding="UTF-8"?>
<svg id="Layer_1" data-name="Layer 1" xmlns="http://www.w3.org/2000/svg" xmlns:xlink="http://www.w3.org/1999/xlink" viewBox="0 0 297.64 158.19">
  <defs>
    <linearGradient id="linear-gradient" x1="30.04" y1="45.1" x2="30.04" y2="159.54" gradientTransform="translate(49.1) skewX(-13)" gradientUnits="userSpaceOnUse">
      <stop offset="0" stop-color="#39b54a"/>
      <stop offset="1" stop-color="#006838"/>
    </linearGradient>
  </defs>
  <g>
    <path d="M103.07,74.42h-5.74l8.17-35.9h5.74l-8.17,35.9Z" style="fill: #39b54a;"/>
    <path d="M142.12,77.26l-20.2-27.73-5.68,24.89h-5.74l8.79-38.64,20.2,27.77,5.69-25.02h5.74l-8.8,38.73Z" style="fill: #39b54a;"/>
    <path d="M180.3,74.42h-6.15l-1.81-9.65h-13.21l-6.31,9.65h-6.45l26.08-39,7.84,39ZM162.71,59.35h8.58l-1.92-10.16-6.67,10.16Z" style="fill: #39b54a;"/>
    <path d="M215.74,77.26l-20.2-27.73-5.68,24.89h-5.74l8.79-38.64,20.2,27.77,5.69-25.02h5.74l-8.8,38.73Z" style="fill: #39b54a;"/>
    <path d="M240.6,75.01c-4.96,0-9.24-1.94-12.04-5.46-2.83-3.55-3.76-8.22-2.63-13.15,2.31-10.18,12.49-18.46,22.68-18.46,4.03,0,7.41,1.21,10.05,3.58l.42.38-1.69,7.25-1.22-1.66c-1.93-2.62-5.05-4.12-8.57-4.12-7.02,0-14.33,6.1-15.97,13.32-.81,3.47-.15,6.86,1.81,9.33,1.83,2.31,4.61,3.58,7.82,3.58,3.43,0,7.43-1.6,10.71-4.29l2.14-1.75-1.74,7.78-.34.21c-3.64,2.24-7.69,3.48-11.42,3.48Z" style="fill: #39b54a;"/>
    <path d="M277.92,74.42h-19.58l8.17-35.9h19.58l-1.21,5.42h-13.84l-1.85,8.19h13.45l-1.28,5.42h-13.43l-2.62,11.44h13.83l-1.21,5.42Z" style="fill: #39b54a;"/>
  </g>
  <g>
    <path d="M209.52,8.2c1.44-1.24,3.49-1.87,6.14-1.87,1.47,0,2.66.17,3.58.51.92.34,1.62.81,2.09,1.41s.76,1.34.85,2.2c.09.86.05,1.83-.14,2.9-.23,1.35-.71,2.47-1.43,3.35-.72.88-1.55,1.64-2.5,2.27-.94.63-1.94,1.17-3,1.64s-2.05.95-2.98,1.45c-.93.5-1.73,1.06-2.41,1.69-.67.63-1.09,1.42-1.26,2.37h11.62l-.56,3.28h-15.6l.38-2.2c.26-1.54.76-2.81,1.5-3.84.74-1.02,1.6-1.88,2.56-2.58.97-.7,1.99-1.3,3.07-1.8,1.08-.5,2.09-1,3.02-1.5.93-.5,1.73-1.06,2.41-1.67s1.09-1.39,1.26-2.32c.23-1.3.14-2.27-.28-2.91-.42-.64-1.35-.96-2.79-.96s-2.49.32-3.14.96c-.65.64-1.09,1.61-1.33,2.91h-3.84c.4-2.28,1.31-4.04,2.76-5.29Z" style="fill: #58595b;"/>
    <path d="M242.36,25.47c-.49,1.01-1.11,1.84-1.87,2.48-.76.64-1.66,1.1-2.7,1.4-1.05.29-2.25.44-3.59.44-2.7,0-4.62-.61-5.76-1.83s-1.45-3.27-.94-6.16l1.33-7.5c.26-1.44.63-2.67,1.12-3.68.49-1.01,1.11-1.83,1.87-2.46.76-.63,1.66-1.09,2.71-1.38,1.05-.29,2.25-.44,3.59-.44s2.51.15,3.47.44c.97.29,1.73.75,2.29,1.38.56.63.92,1.45,1.08,2.46.16,1.01.12,2.24-.14,3.68l-1.33,7.5c-.26,1.44-.63,2.67-1.12,3.68ZM231.14,24.21c.06.59.23,1.06.51,1.4s.67.57,1.17.7,1.11.19,1.83.19,1.35-.06,1.9-.19,1.02-.36,1.41-.7.73-.8.99-1.4.48-1.35.65-2.29l1.36-7.75c.16-.93.21-1.69.16-2.29-.06-.59-.23-1.06-.51-1.4-.28-.34-.67-.57-1.17-.7s-1.11-.19-1.83-.19-1.35.06-1.88.19c-.54.13-1.01.36-1.41.7s-.74.8-1.01,1.4-.48,1.36-.65,2.29l-1.36,7.75c-.16.93-.21,1.69-.16,2.29Z" style="fill: #58595b;"/>
    <path d="M254.71,8.2c1.44-1.24,3.49-1.87,6.14-1.87,1.47,0,2.66.17,3.58.51.92.34,1.62.81,2.09,1.41s.76,1.34.85,2.2c.09.86.05,1.83-.14,2.9-.23,1.35-.71,2.47-1.43,3.35-.72.88-1.55,1.64-2.5,2.27-.94.63-1.94,1.17-3,1.64s-2.05.95-2.98,1.45c-.93.5-1.73,1.06-2.41,1.69-.67.63-1.09,1.42-1.26,2.37h11.62l-.56,3.28h-15.6l.38-2.2c.26-1.54.76-2.81,1.5-3.84.74-1.02,1.6-1.88,2.56-2.58.97-.7,1.99-1.3,3.07-1.8,1.08-.5,2.09-1,3.02-1.5.93-.5,1.73-1.06,2.41-1.67s1.09-1.39,1.26-2.32c.23-1.3.14-2.27-.28-2.91-.42-.64-1.35-.96-2.79-.96s-2.49.32-3.14.96c-.65.64-1.09,1.61-1.33,2.91h-3.84c.4-2.28,1.31-4.04,2.76-5.29Z" style="fill: #58595b;"/>
    <path d="M279.85,16.1c.87-.23,1.84-.35,2.91-.35,1.23,0,2.26.14,3.09.42.83.28,1.46.7,1.9,1.26.44.56.72,1.24.82,2.06.1.81.06,1.74-.12,2.79-.19,1.12-.48,2.13-.89,3.05s-.97,1.71-1.67,2.37c-.71.66-1.59,1.17-2.63,1.54-1.05.36-2.32.54-3.8.54s-2.79-.19-3.77-.56c-.98-.37-1.73-.9-2.25-1.57-.52-.67-.83-1.5-.92-2.48-.09-.98-.04-2.08.17-3.31l1.33-7.68c.47-2.68,1.44-4.65,2.91-5.93,1.48-1.28,3.55-1.92,6.23-1.92s4.62.56,5.62,1.68c1,1.12,1.3,2.79.91,5.02h-3.84c.21-1.19.08-2.05-.38-2.6-.46-.55-1.43-.82-2.9-.82-1.35,0-2.39.33-3.12.98-.73.65-1.25,1.84-1.55,3.56l-.52,2.97c.79-.44,1.62-.78,2.5-1.01ZM279.02,18.73c-.76.24-1.47.58-2.15.99l-.35,2.13c-.16.86-.23,1.59-.21,2.18.02.59.16,1.07.4,1.43.24.36.62.62,1.12.79.5.16,1.13.24,1.9.24s1.47-.08,2.04-.24c.57-.16,1.05-.41,1.43-.75s.69-.76.91-1.27c.22-.51.39-1.12.51-1.81.26-1.4.16-2.42-.28-3.07-.44-.65-1.43-.98-2.97-.98-.81,0-1.6.12-2.36.37Z" style="fill: #58595b;"/>
  </g>
  <path d="M65.54,71.86l31.64-24.54h-51.13l1.69-7.33h-7.62l-3.45,14.95h39.57l-11.97,9.28H23.84l7.27-31.51h62.01L125.64,7.37H47.92l-22.77,17.65L3.78,117.62l19.11,29.51,15.32-66.32h-7.62l-10.39,45.02-7.68-12.51,9.57-41.47h43.46ZM49.1,15.09h55.47l-12.9,10h-55.54l12.96-10Z" style="fill: url(#linear-gradient);"/>
  <g>
    <path d="M61.87,112.83h-4.75l3.85-24.38h6.47c5.11,0,8.12,2.04,7.24,7.57-.81,5.17-4.01,7.7-8.99,7.7h-2.36l-1.46,9.12ZM63.94,99.76h.97c2.81,0,4.43-.61,4.95-3.78.49-3.14-1.26-3.59-3.91-3.59h-.84l-1.16,7.37Z" style="fill: #58595b;"/>
    <path d="M96.06,98.05l1.52-9.6h4.75l-3.85,24.38h-4.75l1.71-10.9h-8.79l-1.71,10.9h-4.75l3.85-24.38h4.75l-1.52,9.6h8.79Z" style="fill: #58595b;"/>
    <path d="M112.72,112.83h-4.75l3.85-24.38h4.75l-3.85,24.38Z" style="fill: #58595b;"/>
    <path d="M127.57,108.69h6.73l-.65,4.14h-11.48l3.85-24.38h4.75l-3.2,20.24Z" style="fill: #58595b;"/>
    <path d="M145.92,112.83h-4.75l3.85-24.38h4.75l-3.85,24.38Z" style="fill: #58595b;"/>
    <path d="M160.12,112.83h-4.75l3.85-24.38h6.47c5.11,0,8.12,2.04,7.24,7.57-.81,5.17-4.01,7.7-8.99,7.7h-2.36l-1.46,9.12ZM162.19,99.76h.97c2.81,0,4.43-.61,4.95-3.78.49-3.14-1.26-3.59-3.91-3.59h-.84l-1.16,7.37Z" style="fill: #58595b;"/>
    <path d="M183.18,112.83h-4.75l3.85-24.38h6.47c5.11,0,8.12,2.04,7.24,7.57-.81,5.17-4.01,7.7-8.99,7.7h-2.36l-1.46,9.12ZM185.25,99.76h.97c2.81,0,4.43-.61,4.95-3.78.49-3.14-1.26-3.59-3.91-3.59h-.84l-1.16,7.37Z" style="fill: #58595b;"/>
    <path d="M206.25,112.83h-4.75l3.85-24.38h4.75l-3.85,24.38Z" style="fill: #58595b;"/>
    <path d="M219.67,87.8h3.43l10.12,17.04h.06l2.59-16.39h4.75l-3.91,24.86h-3.43l-10.15-17.04h-.06l-2.62,16.55h-4.75l3.98-25.03Z" style="fill: #58595b;"/>
    <path d="M254.18,92.58l-.84,5.37h7.57l-.65,4.14h-7.57l-1.07,6.6h7.86l-.65,4.14h-12.61l3.85-24.38h12.61l-.65,4.14h-7.86Z" style="fill: #58595b;"/>
    <path d="M282.49,93.81c-.71-1.23-1.75-2-3.33-2s-3.17,1.16-3.43,2.75c-.65,4.11,9.31,2.39,8.02,10.57-.78,4.88-4.37,8.34-9.34,8.34-3.36,0-5.53-1.94-6.76-4.75l3.56-3.01c.36,1.88,1.78,3.56,3.82,3.56s3.43-1.65,3.72-3.52c.39-2.52-1.81-3.23-3.62-3.98-2.91-1.29-4.98-2.88-4.37-6.66.65-4.04,4.17-7.31,8.28-7.31,2.17,0,4.98,1.07,6.21,2.72l-2.75,3.3Z" style="fill: #58595b;"/>
  </g>
  <g>
    <path d="M77.29,133.88v1.34h-1.74v10.26h-1.54v-10.26h-1.81v-1.34h5.09Z" style="fill: #58595b;"/>
    <path d="M82.2,133.88v4.52h2.32v-4.52h1.54v11.6h-1.54v-5.74h-2.32v5.74h-1.54v-11.6h1.54Z" style="fill: #58595b;"/>
    <path d="M91.66,133.88v8.51c0,1.49.45,1.8,1.08,1.8,1.06,0,1.15-.68,1.17-1.63v-8.67h1.54v8.23c0,1.52.02,3.52-2.66,3.52-2.45,0-2.66-1.66-2.66-3.75v-8h1.54Z" style="fill: #58595b;"/>
    <path d="M99.49,133.88h1.85c1.12,0,2.88.06,2.88,2.97,0,1.09-.32,2.75-1.6,2.98l2.14,5.65h-1.6l-2.09-5.68h-.03v5.68h-1.54v-11.6ZM102.58,137.18c0-1.11-.14-2.03-1.31-2h-.25v3.83c1.15.08,1.55-.66,1.55-1.83Z" style="fill: #58595b;"/>
    <path d="M111.94,135.66c-.4-.29-.78-.49-1.31-.49-.85,0-1.37.69-1.37,1.49,0,.51.12.86.43,1.26l1.17,1.28c1.05,1.06,1.65,1.83,1.65,3.4s-1.02,3.03-2.72,3.03c-.6,0-1.21-.17-1.69-.55v-1.55c.46.34.92.6,1.52.6.95,0,1.35-.75,1.35-1.61,0-2.31-3.25-2.77-3.25-5.81,0-1.63.86-2.97,2.6-2.97.58,0,1.14.09,1.63.38v1.55Z" style="fill: #58595b;"/>
    <path d="M117.81,133.88c1.81,0,3.88.12,3.88,6,0,5.35-1.78,5.6-4.54,5.6h-1.06v-11.6h1.72ZM117.63,135.18v8.98c2.54.08,2.43-2.32,2.43-4.29,0-1.78.17-4.85-2.43-4.69Z" style="fill: #58595b;"/>
    <path d="M128.32,133.88l2.49,11.6h-1.55l-.43-2.26h-2.31l-.43,2.26h-1.51l2.52-11.6h1.21ZM128.29,140.34l-.58-4.21h-.03l-.92,5.89h1.85l-.31-1.68Z" style="fill: #58595b;"/>
    <path d="M134.3,133.88l1.42,5.37h.03l.25-1.49.98-3.88h1.65l-2.15,6.6v5h-1.54v-5l-2.29-6.6h1.66Z" style="fill: #58595b;"/>
    <path d="M142.61,144.23l-1.49,4.08-.78-.22,1.03-4.25,1.25.38Z" style="fill: #58595b;"/>
    <path d="M155.05,133.88v11.6h-1.51v-10.26h-1.14v-1.34h2.65Z" style="fill: #58595b;"/>
    <path d="M161.2,140.14v-1.38h.18c1.31,0,1.58-.48,1.58-1.77,0-.62,0-1.86-.89-1.86-.8,0-.91.89-.91,1.51v.35h-1.48v-.11c0-1.75.26-3.14,2.34-3.14,1.94,0,2.42,1.32,2.42,3,0,1.08-.08,2.37-1.29,2.74v.03c1.28.32,1.43,1.54,1.43,2.68,0,1.86-.55,3.43-2.66,3.43-1.75,0-2.45-.98-2.45-2.69v-.35h1.48v.37c0,.65.25,1.29.97,1.29,1.09,0,1.09-1.4,1.09-2.17,0-.98-.18-1.97-1.37-1.92h-.45Z" style="fill: #58595b;"/>
    <path d="M176.74,133.88l2.49,11.6h-1.55l-.43-2.26h-2.31l-.43,2.26h-1.51l2.52-11.6h1.21ZM176.71,140.34l-.58-4.21h-.03l-.92,5.89h1.85l-.31-1.68Z" style="fill: #58595b;"/>
    <path d="M183.99,133.88v8.51c0,1.49.45,1.8,1.08,1.8,1.06,0,1.15-.68,1.17-1.63v-8.67h1.54v8.23c0,1.52.02,3.52-2.66,3.52-2.45,0-2.66-1.66-2.66-3.75v-8h1.54Z" style="fill: #58595b;"/>
    <path d="M197.43,139.35v.18c0,2.21.32,6.09-2.77,6.09-2.75,0-3.08-2.65-3.08-5.92s.26-5.98,2.94-5.98c1.65,0,2.43.83,2.83,2.37l-1.46.6c-.15-.77-.37-1.52-1.32-1.52-1.26,0-1.35,1.72-1.35,4.52,0,4.03.68,4.49,1.35,4.49.63,0,1.32-.09,1.32-2.86v-.63h-1.29v-1.34h2.83Z" style="fill: #58595b;"/>
    <path d="M202.67,133.88v8.51c0,1.49.45,1.8,1.08,1.8,1.06,0,1.15-.68,1.17-1.63v-8.67h1.54v8.23c0,1.52.02,3.52-2.66,3.52-2.45,0-2.66-1.66-2.66-3.75v-8h1.54Z" style="fill: #58595b;"/>
    <path d="M214.21,135.66c-.4-.29-.78-.49-1.31-.49-.85,0-1.37.69-1.37,1.49,0,.51.12.86.43,1.26l1.17,1.28c1.05,1.06,1.65,1.83,1.65,3.4s-1.02,3.03-2.72,3.03c-.6,0-1.21-.17-1.69-.55v-1.55c.46.34.92.6,1.52.6.95,0,1.35-.75,1.35-1.61,0-2.31-3.25-2.77-3.25-5.81,0-1.63.86-2.97,2.6-2.97.58,0,1.14.09,1.63.38v1.55Z" style="fill: #58595b;"/>
    <path d="M222.69,133.88v1.34h-1.74v10.26h-1.54v-10.26h-1.81v-1.34h5.09Z" style="fill: #58595b;"/>
    <path d="M231.12,137.23c0-1.85.23-3.49,2.48-3.49,1.91,0,2.58,1.06,2.58,2.86s-1.18,4.14-2,5.66l-.98,1.88h2.88v1.34h-5.11l2.81-5.95c.42-.94.83-1.97.83-3.01,0-.63-.23-1.38-1.03-1.38-1.05,0-.89,1.74-.89,2.21v.31h-1.57v-.42Z" style="fill: #58595b;"/>
    <path d="M244.87,139.67c0,1.83.14,5.94-2.63,5.94s-2.63-4.11-2.63-5.94-.14-5.94,2.63-5.94,2.63,4.11,2.63,5.94ZM242.24,135.12c-1.06,0-1.14,2.14-1.12,4.55-.02,2.41.06,4.55,1.12,4.55s1.14-2.14,1.12-4.55c.02-2.42-.06-4.55-1.12-4.55Z" style="fill: #58595b;"/>
    <path d="M248.41,137.23c0-1.85.23-3.49,2.48-3.49,1.91,0,2.58,1.06,2.58,2.86s-1.18,4.14-2,5.66l-.98,1.88h2.88v1.34h-5.11l2.81-5.95c.42-.94.83-1.97.83-3.01,0-.63-.23-1.38-1.03-1.38-1.05,0-.89,1.74-.89,2.21v.31h-1.57v-.42Z" style="fill: #58595b;"/>
    <path d="M260.83,133.88l-2.26,4.95.03.03c.34-.31.69-.52,1.18-.52,1.92,0,2.03,2.23,2.03,3.65,0,1.78-.23,3.63-2.49,3.63s-2.51-2.14-2.51-3.92c0-3.15,1.03-5.06,2.35-7.81h1.66ZM259.34,139.72c-.23,0-.95-.08-.95,2.26,0,.66.03,2.25.95,2.25s.91-1.57.91-2.23c0-.71.03-2.28-.91-2.28Z" style="fill: #58595b;"/>
  </g>
  <line x1="54.94" y1="125.1" x2="282.93" y2="125.1" style="fill: none; stroke: #58595b; stroke-miterlimit: 10; stroke-width: .5px;"/>
</svg>